<svg width="100" height="100" viewBox="0 0 136 136" fill="none" xmlns="http://www.w3.org/2000/svg">
<g filter="url(#filter0_d)">
<circle cx="68" cy="58" r="28" fill="white"/>
</g>
<path d="M64.5075 57.9729C64.603 58.0843 64.6507 58.1462 64.6985 58.1957C66.1433 59.6932 67.5761 61.1907 69.0209 62.6759C69.2597 62.9234 69.5104 63.1586 69.7373 63.4185C70.1672 63.9011 70.0478 64.619 69.4985 64.9036C69.1642 65.0769 68.7701 65.015 68.4836 64.7304C68.2209 64.4704 67.9701 64.2105 67.7194 63.9506C66.1194 62.2922 64.5075 60.6338 62.9075 58.9754C62.609 58.666 62.3104 58.3442 62 57.9977C62.0358 57.9482 62.0955 57.8739 62.1552 57.812C64.2328 55.6585 66.3224 53.5051 68.4 51.3392C68.7582 50.9679 69.1642 50.9432 69.4507 51.0669C70.0239 51.3145 70.191 52.0694 69.7612 52.5521C69.4866 52.8615 69.2 53.1338 68.9254 53.4308C67.5284 54.8912 66.1313 56.3269 64.7463 57.7749C64.6746 57.8368 64.603 57.8863 64.5075 57.9729Z" fill="#E6514A"/>
<defs>
<filter id="filter0_d" x="0" y="0" width="136" height="136" filterUnits="userSpaceOnUse" color-interpolation-filters="sRGB">
<feFlood flood-opacity="0" result="BackgroundImageFix"/>
<feColorMatrix in="SourceAlpha" type="matrix" values="0 0 0 0 0 0 0 0 0 0 0 0 0 0 0 0 0 0 127 0"/>
<feOffset dy="10"/>
<feGaussianBlur stdDeviation="20"/>
<feColorMatrix type="matrix" values="0 0 0 0 0 0 0 0 0 0.0426667 0 0 0 0 0.266667 0 0 0 0.22 0"/>
<feBlend mode="normal" in2="BackgroundImageFix" result="effect1_dropShadow"/>
<feBlend mode="normal" in="SourceGraphic" in2="effect1_dropShadow" result="shape"/>
</filter>
</defs>
</svg>
